<svg width="20" height="24" viewBox="0 0 20 24" fill="none" xmlns="http://www.w3.org/2000/svg">
<path d="M2.24 7.844C2.504 7.34 2.768 6.896 3.032 6.512C3.296 6.104 3.572 5.708 3.86 5.324C4.172 4.916 4.52 4.46 4.904 3.956H5.876C5.804 4.436 5.744 5.06 5.696 5.828C5.648 6.572 5.612 7.568 5.588 8.816C5.564 10.064 5.552 11.672 5.552 13.64C5.552 15.584 5.552 17.996 5.552 20.876L8.648 21.416L7.964 22.748C7.724 22.772 7.364 22.82 6.884 22.892C6.404 22.964 5.912 23.024 5.408 23.072C4.904 23.144 4.46 23.204 4.076 23.252C3.716 23.3 3.5 23.324 3.428 23.324C3.356 23.324 3.224 23.24 3.032 23.072C2.84 22.904 2.648 22.724 2.456 22.532C2.288 22.34 2.204 22.208 2.204 22.136C2.252 21.2 2.312 20.3 2.384 19.436C2.48 18.548 2.528 17.444 2.528 16.124C2.528 15.116 2.492 14.132 2.42 13.172C2.348 12.188 2.288 11.252 2.24 10.364C2.192 9.452 2.192 8.612 2.24 7.844ZM7.712 12.452L14.624 12.236V14.144L7.712 13.928V12.452ZM9.404 4.1V19.364C9.404 19.508 9.344 19.772 9.224 20.156C9.104 20.516 8.912 20.936 8.648 21.416H7.532V4.1H9.404ZM0.728 3.344L0.98 0.68C2.3 0.775999 3.716 0.907998 5.228 1.076C6.764 1.22 8.252 1.388 9.692 1.58C11.156 1.748 12.44 1.916 13.544 2.084C14.648 2.252 15.44 2.408 15.92 2.552C15.968 2.576 16.052 2.648 16.172 2.768C16.316 2.864 16.448 2.984 16.568 3.128C16.712 3.248 16.832 3.38 16.928 3.524C17.024 3.644 17.072 3.728 17.072 3.776V20.84L19.304 21.38V22.784C19.016 22.832 18.644 22.892 18.188 22.964C17.732 23.012 17.264 23.06 16.784 23.108C16.304 23.18 15.884 23.228 15.524 23.252C15.164 23.3 14.948 23.324 14.876 23.324C14.804 23.324 14.672 23.228 14.48 23.036C14.288 22.868 14.108 22.688 13.94 22.496C13.796 22.304 13.724 22.172 13.724 22.1V5.396L5.696 4.46L4.508 4.532L4.436 4.316L0.728 3.344Z" fill="#E61B1B"/>
</svg>
